<?xml version="1.0" encoding="UTF-8" standalone="no"?>
<!-- Created with Inkscape (http://www.inkscape.org/) -->

<svg
   xmlns:dc="http://purl.org/dc/elements/1.1/"
   xmlns:cc="http://creativecommons.org/ns#"
   xmlns:rdf="http://www.w3.org/1999/02/22-rdf-syntax-ns#"
   xmlns:svg="http://www.w3.org/2000/svg"
   xmlns="http://www.w3.org/2000/svg"
   xmlns:sodipodi="http://sodipodi.sourceforge.net/DTD/sodipodi-0.dtd"
   xmlns:inkscape="http://www.inkscape.org/namespaces/inkscape"
   width="115mm"
   height="53mm"
   viewBox="0 0 407.48006 187.79516"
   id="svg2"
   version="1.1"
   inkscape:version="0.91 r13725"
   sodipodi:docname="logo.svg">
  <defs
     id="defs4">
    <clipPath
       clipPathUnits="userSpaceOnUse"
       id="clipPath4177">
      <rect
         style="opacity:1;fill:none;fill-opacity:1;stroke:none;stroke-linejoin:round"
         id="rect4179"
         width="674.28571"
         height="295.71429"
         x="28.57143"
         y="23.790775" />
    </clipPath>
    <clipPath
       clipPathUnits="userSpaceOnUse"
       id="clipPath4181">
      <rect
         style="opacity:1;fill:none;fill-opacity:1;stroke:none;stroke-linejoin:round"
         id="rect4183"
         width="674.28571"
         height="295.71429"
         x="28.57143"
         y="23.790775" />
    </clipPath>
  </defs>
  <sodipodi:namedview
     id="base"
     pagecolor="#ffffff"
     bordercolor="#666666"
     borderopacity="1.0"
     inkscape:pageopacity="0.0"
     inkscape:pageshadow="2"
     inkscape:zoom="1.979899"
     inkscape:cx="154.99003"
     inkscape:cy="172.93888"
     inkscape:document-units="px"
     inkscape:current-layer="layer1"
     showgrid="false"
     inkscape:window-width="1920"
     inkscape:window-height="1017"
     inkscape:window-x="3192"
     inkscape:window-y="-8"
     inkscape:window-maximized="1"
     height="167mm" />
  <metadata
     id="metadata7">
    <rdf:RDF>
      <cc:Work
         rdf:about="">
        <dc:format>image/svg+xml</dc:format>
        <dc:type
           rdf:resource="http://purl.org/dc/dcmitype/StillImage" />
        <dc:title></dc:title>
      </cc:Work>
    </rdf:RDF>
  </metadata>
  <g
     inkscape:label="Layer 1"
     inkscape:groupmode="layer"
     id="layer1"
     style="display:inline"
     transform="translate(0,-864.56726)">
    <path
       style="fill:#fd8a9b;fill-opacity:1"
       d="m 366.39959,308.44043 c -5.45053,-2.68488 -9.79838,-12.99191 -9.01576,-21.3728 0.89437,-9.57753 5.66351,-22.90031 11.69642,-32.67441 l 2.82965,-4.58439 -1.38404,-2.57 c -0.76122,-1.4135 -1.58822,-2.56872 -1.83776,-2.56714 -0.24955,0.002 -1.07193,1.5064 -1.82752,3.34404 -2.04811,4.98117 -4.55034,6.99051 -8.70526,6.99051 -2.94787,0 -3.78099,-0.37387 -5.75417,-2.58225 -1.82402,-2.04142 -2.244,-3.12395 -2.00528,-5.16871 0.16607,-1.42255 0.18739,-2.58646 0.0474,-2.58646 -0.14002,0 -1.96023,0.86432 -4.04492,1.92072 -4.56851,2.31503 -11.50668,4.20516 -15.43607,4.20516 -2.11639,0 -3.09719,0.41496 -3.71666,1.57245 -2.38004,4.44714 -10.1849,6.03836 -12.87064,2.624 l -1.51769,-1.92944 -2.55799,1.50429 c -9.22776,5.42661 -18.02359,2.70467 -22.97079,-7.1085 -0.8794,-1.74435 -1.71917,-3.30545 -1.86616,-3.46912 -0.147,-0.16367 -2.60285,0.91845 -5.45746,2.4047 -5.29718,2.75798 -11.24245,4.40162 -15.92124,4.40162 -1.85446,0 -2.86029,0.45751 -3.45699,1.57245 -2.06494,3.85837 -9.46971,5.9027 -12.25388,3.38307 -1.00568,-0.91013 -1.75379,-0.99527 -3.36452,-0.38287 -3.00852,1.14384 -6.73663,0.96564 -8.70967,-0.41633 -0.94528,-0.66211 -2.74982,-3.24646 -4.01008,-5.74301 -1.26025,-2.49655 -2.74987,-4.53919 -3.31027,-4.53919 -2.2231,0 -5.38142,5.39395 -6.66627,11.38503 -0.89833,4.18877 -2.52603,5.50477 -3.81944,3.08802 -0.88199,-1.64803 -1.09757,-14.14289 -0.28073,-16.27153 0.40032,-1.04323 -0.0411,-1.26446 -2.52324,-1.26446 -1.65466,0 -4.62046,0.54926 -6.59068,1.22058 -3.26337,1.11194 -3.58221,1.43829 -3.58221,3.66643 0,3.37382 -3.01146,9.02645 -5.55158,10.42057 -1.88064,1.03216 -2.33091,1.03034 -4.21155,-0.017 -3.82758,-2.13168 -2.75749,-7.98739 2.11842,-11.5923 2.80276,-2.07217 2.90483,-3.50033 0.32037,-4.48294 -2.88264,-1.09598 -4.54233,-0.92123 -6.52894,0.68743 -1.74626,1.41403 -1.77173,1.65912 -1.8102,17.42047 -0.0321,13.1267 -0.29587,16.94507 -1.47487,21.34641 -1.9383,7.23585 -3.87467,10.84273 -6.56893,12.23598 -3.24787,1.67955 -4.43611,1.45346 -5.75386,-1.09479 -2.4328,-4.70451 -1.25509,-12.468 5.08636,-33.5294 2.18584,-7.25966 3.82639,-13.34524 3.64566,-13.5235 -0.18073,-0.17826 -2.88662,0.53494 -6.01309,1.5849 -28.17202,9.4609 -59.56681,7.80953 -92.132267,-4.8462 -5.823706,-2.26323 -8.113975,-2.76102 -12.831966,-2.78896 -7.583573,-0.0449 -13.0114,2.31831 -16.307012,7.09995 -3.004113,4.35869 -0.452111,11.76405 5.238735,15.20169 3.691556,2.22994 4.285364,4.49622 1.082334,4.13076 -5.097293,-0.5816 -10.688906,-8.38517 -10.688906,-14.91727 0,-4.7256 1.539817,-7.66455 5.530197,-10.55517 7.789867,-5.64296 17.260656,-5.90011 30.584453,-0.83045 17.990972,6.8455 34.465722,10.05173 51.562022,10.03475 16.14341,-0.0161 28.28907,-2.20018 40.78036,-7.33344 3.47725,-1.42897 6.57848,-2.54323 6.89162,-2.47614 0.31313,0.0671 1.53936,-0.27822 2.72495,-0.76738 3.29102,-1.35784 5.97059,-1.07828 10.28846,1.0734 3.21236,1.60079 4.23589,1.80381 5.54951,1.10079 0.88588,-0.47412 4.04828,-1.06638 7.02756,-1.31615 l 5.41686,-0.45413 1.50503,-3.51816 c 3.92845,-9.18311 10.69632,-22.56807 13.45249,-26.60524 4.06072,-5.94806 6.47709,-8.11226 8.7053,-7.79683 5.62585,0.79642 -1.36784,16.38507 -15.36219,34.24166 -3.93369,5.01933 -6.19134,8.63498 -6.53473,10.46541 -0.68127,3.63146 -0.0822,4.14602 1.4276,1.22632 2.43627,-4.71123 7.35279,-6.17015 10.07335,-2.98915 0.81043,0.9476 2.30004,3.36596 3.31024,5.37413 3.14674,6.25538 8.68171,5.71906 10.58672,-1.02582 0.61867,-2.19043 2.09046,-4.55054 4.00146,-6.41658 2.5865,-2.52566 3.5356,-2.96246 6.57517,-3.02609 4.44241,-0.093 6.48072,1.991 6.48072,6.62589 l 0,3.08477 3.88778,-0.46045 c 4.33229,-0.51309 11.19193,-3.40222 15.03186,-6.33108 2.2412,-1.70944 2.52095,-2.33578 2.52095,-5.6443 0,-2.04681 0.68471,-5.90581 1.52159,-8.57555 0.83687,-2.66974 1.52603,-5.09606 1.53147,-5.39183 0.005,-0.29577 -2.14375,-0.64035 -4.77597,-0.76573 -3.64227,-0.1735 -4.78584,-0.50243 -4.78584,-1.37658 0,-0.88459 1.31756,-1.23661 5.73219,-1.53147 l 5.7322,-0.38287 1.82234,-3.4458 c 4.86644,-9.20182 9.46395,-14.1987 12.17396,-13.23149 1.3837,0.49384 1.17634,4.73349 -0.494,10.10033 l -1.45118,4.66263 1.64261,3e-5 c 0.90344,2e-5 5.29807,-0.91702 9.76586,-2.03786 8.24371,-2.06811 11.6692,-2.04258 9.9127,0.0739 -0.81839,0.9861 -18.73807,5.79263 -21.59603,5.79263 -0.76159,0 -1.99161,1.79092 -3.28693,4.78584 -1.13845,2.63222 -3.79718,7.66062 -5.90828,11.17424 -4.34028,7.22373 -4.35835,7.85284 -0.39105,13.60977 3.3286,4.83013 6.6961,6.26539 11.52684,4.91288 4.09954,-1.1478 8.55249,-4.67953 10.01808,-7.94556 2.48653,-5.54113 7.46235,-8.72261 12.08388,-7.72629 2.79467,0.60248 4.40393,3.0637 4.40393,6.73542 l 0,2.99921 3.88777,-0.46044 c 2.13827,-0.25325 5.6834,-1.28251 7.87805,-2.28726 4.54294,-2.07983 12.51474,-7.3557 14.60594,-9.66644 0.77273,-0.85385 2.56943,-1.77091 3.99266,-2.03791 4.42035,-0.82926 6.44624,0.65937 10.08335,7.40927 l 3.30961,6.14212 2.93408,-2.65075 c 4.61796,-4.17207 24.15607,-13.34042 26.50668,-12.4384 1.01122,0.38804 0.84839,1.07025 -1.06926,4.47988 -4.56608,8.11859 -5.88301,16.11934 -3.1878,19.36687 2.78006,3.34976 9.42663,-0.58103 15.23131,-9.00779 2.11072,-3.06417 4.96869,-7.20665 6.35105,-9.20551 2.82273,-4.08163 7.28689,-6.70314 11.41473,-6.70314 3.77448,0 5.14443,1.31097 6.406,6.13019 2.14785,8.20486 8.17339,10.08194 15.71366,4.89515 2.20511,-1.51684 4.74198,-2.85363 5.63751,-2.97064 0.89553,-0.11702 2.59826,-0.59887 3.78385,-1.07078 3.306,-1.31594 6.08917,-1.03514 9.91796,1.00066 3.32849,1.76977 3.66948,1.8064 7.12737,0.76573 1.9974,-0.60113 5.24808,-1.09296 7.22374,-1.09296 l 3.5921,0 2.15891,-5.16871 c 6.25901,-14.98486 15.90944,-31.39393 19.2076,-32.65955 1.96537,-0.75418 3.98377,-0.52149 4.32559,0.49867 1.10824,3.30762 -5.44599,17.7061 -11.98026,26.31849 -2.1983,2.89745 -5.7865,7.61225 -7.97377,10.47735 -3.17492,4.15881 -3.97003,5.78013 -3.94301,8.04022 l 0.0338,2.83095 1.43133,-2.70663 c 1.70126,-3.21705 4.31156,-4.78848 7.37405,-4.43928 1.82523,0.20813 2.64715,1.03479 4.5273,4.55343 3.15575,5.90586 4.04295,6.80403 6.72107,6.80403 3.48472,0 7.47968,-4.61909 9.19284,-10.62905 1.06209,-3.72594 1.65674,-4.73304 2.68007,-4.53903 1.92734,0.36541 2.00373,3.60758 0.18498,7.85057 -1.69777,3.96073 -1.43872,6.79011 0.58599,6.40019 0.68164,-0.13127 2.74404,-2.21835 4.58313,-4.63795 4.8057,-6.32268 5.75888,-5.96775 5.15097,1.91802 l -0.48701,6.31732 2.45383,-2.68007 c 1.3496,-1.47404 4.98644,-5.30254 8.08186,-8.50777 l 5.62804,-5.82771 6.32719,-1.22866 c 12.64041,-2.45464 19.93536,-3.0127 33.89111,-2.59268 7.58217,0.22819 17.05928,0.98132 21.06024,1.67361 17.0599,2.95188 38.84483,2.78891 50.38442,-0.37693 7.27136,-1.99487 14.28576,-5.67231 16.35061,-8.57213 3.18421,-4.4718 2.56257,-11.55619 -1.33535,-15.21809 -1.60463,-1.50747 -2.92638,-1.87286 -7.63513,-2.11064 -4.92115,-0.24851 -5.69457,-0.47948 -5.69457,-1.70064 0,-2.86849 8.19737,-2.93484 13.6673,-0.11062 4.0737,2.10332 6.2137,6.31445 6.22922,12.25797 0.0147,5.6179 -1.07927,8.12528 -5.07595,11.63442 -10.65713,9.35708 -37.56538,12.33318 -68.03916,7.52525 -21.3358,-3.36621 -52.80605,-1.47885 -60.14503,3.60706 -2.59508,1.79839 -7.19217,6.73249 -12.7838,13.721 -2.45754,3.07145 -2.48131,3.1814 -2.49156,11.52413 -0.005,4.63269 -0.48977,11.35202 -1.07573,14.93183 -2.24771,13.73192 -6.52809,19.90911 -13.79565,19.90911 -3.43873,0 -4.4591,-1.7859 -4.37642,-7.65979 0.0975,-6.92601 3.99991,-16.79978 11.72841,-29.67487 3.67276,-6.11855 3.7782,-6.45784 3.27027,-10.52328 l -0.52487,-4.20087 -2.26843,1.90875 c -2.59972,2.18753 -4.89901,2.43104 -6.7906,0.71918 -1.19375,-1.08033 -1.55088,-1.04543 -3.88897,0.38001 -5.62699,3.43055 -10.39717,1.52912 -14.29775,-5.69919 -1.41473,-2.62169 -2.54693,-3.82867 -3.59146,-3.82867 -1.9099,0 -5.47577,6.28098 -6.18084,10.88705 -0.60736,3.96767 -1.97728,5.36575 -3.48068,3.55224 -0.76536,-0.92324 -1.04759,-3.60373 -1.01842,-9.67267 l 0.0403,-8.3955 -3.97429,0.41019 c -2.18587,0.2256 -5.04682,0.96479 -6.35767,1.64266 -1.98137,1.02461 -2.38336,1.68635 -2.38336,3.9234 0,3.49463 -2.62282,8.58808 -4.97396,9.65934 -1.3816,0.6295 -2.43773,0.59829 -4.18036,-0.12353 -2.03787,-0.84411 -2.33172,-1.34424 -2.33172,-3.96867 0,-2.50763 0.57467,-3.6172 3.48458,-6.72814 l 3.48458,-3.7253 -1.74062,-1.21917 c -0.95734,-0.67055 -2.3369,-1.21918 -3.06568,-1.21918 -2.05499,0 -5.08997,1.60617 -5.62193,2.97522 -0.26421,0.67998 -0.44331,7.48063 -0.39799,15.11258 0.13261,22.33649 -2.99918,33.37817 -9.95967,35.1145 -5.3811,1.34235 -6.29701,-7.57559 -2.3183,-22.5729 1.2849,-4.84327 3.51333,-12.68248 4.95209,-17.42047 1.43875,-4.73799 2.46229,-8.61452 2.27451,-8.61452 -0.18777,0 -1.69226,0.68916 -3.34333,1.53147 -3.33201,1.69986 -9.78164,2.05529 -12.49353,0.6885 -0.91991,-0.46364 -2.56054,-1.88533 -3.64584,-3.15932 l -1.97327,-2.31635 -1.63405,2.76951 c -3.20599,5.43375 -9.94554,7.54925 -13.31522,4.17956 l -1.66678,-1.66678 -1.15889,1.85821 c -0.63739,1.02202 -3.08539,3.77849 -5.44,6.12548 -6.51638,6.49532 -12.20045,7.41114 -16.00199,2.57827 -2.14231,-2.7235 -2.18502,-9.21002 -0.10056,-15.26862 0.84231,-2.44822 1.53147,-4.55172 1.53147,-4.67446 0,-0.50087 -5.11055,1.55396 -6.89162,2.77095 -1.05288,0.71944 -3.2005,1.72521 -4.77248,2.23506 -1.57198,0.50985 -4.44214,2.36673 -6.37812,4.1264 l -3.51997,3.1994 4.2076,9.18882 c 5.71977,12.4912 7.06069,18.88709 5.99039,28.57289 -0.45076,4.07916 -1.18912,8.68528 -1.64083,10.23581 -1.0816,3.71276 -5.41517,9.95355 -7.7385,11.14423 -2.5901,1.3274 -7.49957,1.16607 -10.57206,-0.34742 z m 9.08478,-2.11727 c 2.59517,-1.34201 5.70792,-7.29285 6.99052,-13.36418 1.34923,-6.38674 0.47106,-18.4845 -1.81003,-24.93524 -2.57853,-7.29191 -6.07877,-14.23188 -7.0429,-13.96405 -1.19528,0.33204 -7.8039,13.94358 -9.93987,20.4728 -2.77484,8.48212 -3.56942,13.91024 -2.70411,18.47301 1.43174,7.54954 6.64561,14.44184 10.93167,14.45073 0.75793,0.002 2.36655,-0.50831 3.57472,-1.13307 z m 150.48927,-7.5147 c 1.67372,-1.67371 3.05974,-4.25678 4.11182,-7.66303 2.4639,-7.97717 4.15277,-24.27029 2.51575,-24.27029 -1.07287,0 -9.04309,16.07579 -10.76494,21.71268 -1.79668,5.88188 -2.06111,10.44999 -0.68459,11.82652 1.38076,1.38075 2.06231,1.15377 4.82196,-1.60588 z M 182.57426,286.51045 c 3.03245,-6.85538 5.51382,-26.26344 4.01135,-31.37494 -0.57044,-1.9407 -0.86617,-1.37882 -2.82121,5.36014 -3.50275,12.07389 -5.01173,19.44167 -5.03124,24.5657 -0.0225,5.91975 1.59378,6.52953 3.8411,1.4491 z m 272.04685,0.46523 c 2.51384,-5.82201 3.6654,-12.32018 4.10488,-23.16348 0.24751,-6.10674 0.17108,-10.84097 -0.16984,-10.5205 -1.82502,1.7155 -8.00525,26.94809 -8.00525,32.68378 0,4.84064 2.18062,5.3765 4.07021,1.0002 z m -254.4572,-34.84094 c 0.83455,-1.36875 1.51865,-3.15172 1.52022,-3.96215 0.002,-1.36996 -0.13075,-1.348 -1.89831,0.31254 -2.0983,1.97125 -3.04958,4.17646 -2.31461,5.36566 0.72948,1.18032 1.05212,0.97469 2.6927,-1.71605 z m 273.26432,-2.16319 c 0.42294,-1.21327 0.47259,-2.38913 0.11031,-2.61302 -1.03472,-0.63949 -3.84426,3.43309 -3.84426,5.57246 0,1.85998 0.0536,1.88125 1.48248,0.58812 0.81536,-0.73789 1.82852,-2.3343 2.25147,-3.54756 z m -217.51843,2.32479 c 2.15808,-2.01056 2.11405,-2.42113 -0.46418,-4.32729 l -2.14003,-1.5822 -1.74292,2.65885 c -0.95861,1.46237 -1.55701,3.1433 -1.3298,3.73539 0.60628,1.57997 3.74874,1.31163 5.67693,-0.48475 z m 66.61895,0 c 2.19086,-2.0411 2.1437,-2.27692 -0.9489,-4.7445 l -2.62471,-2.09426 -1.58681,2.56751 c -1.83476,2.9687 -1.92787,3.65372 -0.66793,4.91367 1.38772,1.38772 3.95271,1.105 5.82835,-0.64242 z m 38.66613,-1.33823 c 2.84754,-3.1465 4.44961,-10.05942 3.1289,-13.50114 -0.53011,-1.38145 -2.7783,-1.57851 -4.92167,-0.43142 -2.18226,1.16791 -5.33383,7.04551 -5.33383,9.94746 0,4.62755 4.34591,7.05773 7.1266,3.9851 z m -101.31202,-4.69519 c 0,-0.38671 0.19211,-1.20374 0.4269,-1.8156 0.55581,-1.44839 -1.67675,-3.66718 -3.12913,-3.10985 -1.49281,0.57285 -1.42883,2.49377 0.14084,4.22823 1.36412,1.50734 2.56139,1.83324 2.56139,0.69722 z m 66.81463,-1.25446 c 0.42907,-2.24454 -1.20869,-4.3192 -2.89791,-3.67099 -1.49281,0.57285 -1.42882,2.49377 0.14084,4.22823 1.70762,1.8869 2.31324,1.76449 2.75707,-0.55724 z m 101.85959,0.4233 c 1.93734,-1.52391 5.91338,-8.57381 5.91338,-10.48497 0,-1.40755 -4.28579,-1.26715 -6.80847,0.22303 -3.97398,2.34749 -6.98412,9.23439 -4.93279,11.28571 0.99839,0.9984 3.90658,0.48752 5.82788,-1.02377 z M 293.1293,227.63121 c 2.9498,-5.9002 3.33154,-7.12731 2.28589,-7.34806 -1.72406,-0.36398 -2.86245,1.07283 -4.76017,6.00803 -4.07576,10.59937 -2.56419,11.41801 2.47428,1.34003 z m 210.57563,-3.10411 c 3.67484,-5.25036 10.86295,-19.47078 10.18483,-20.1489 -0.38928,-0.38929 -4.45394,4.97812 -7.60624,10.04408 -1.82872,2.93887 -7.49131,15.23769 -7.49131,16.27068 0,0.71396 0.80128,-0.2917 4.91272,-6.16586 z M 231.7869,223.93913 c 3.84431,-5.47719 10.03479,-17.75636 9.60367,-19.04943 -0.4447,-1.33377 -8.64964,11.39026 -11.64065,18.05205 -4.16099,9.26764 -3.8683,9.41096 2.03698,0.99738 z m 65.41402,-7.46087 c 0.80245,-0.5097 4.0658,-8.6584 4.01461,-10.02464 -0.0299,-0.79727 -3.04376,3.27187 -4.60343,6.21525 -2.12517,4.01058 -1.91085,5.39711 0.58882,3.80939 z m -112.16867,-29.7467 c -0.7504,-0.3028 -0.95717,-10.04366 -0.95717,-45.09098 0,-43.414579 0.0427,-44.727629 1.48113,-45.497429 1.58674,-0.84919 36.52655,-1.14555 38.65734,-0.32788 1.02987,0.3952 1.21123,2.18185 1.21123,11.932699 0,7.6526 0.26689,11.37895 0.80221,11.20051 0.71424,-0.23808 1.89162,-2.97464 7.7514,-18.01634 0.85492,-2.194519 1.99314,-4.354149 2.52939,-4.799199 0.64323,-0.53383 7.58701,-0.73949 20.40668,-0.60438 17.76039,0.18717 19.42307,0.31699 19.33126,1.50935 -0.0552,0.71751 -4.19021,7.383469 -9.18882,14.813249 -4.99861,7.42978 -11.19943,16.69408 -13.77962,20.58733 l -4.69123,7.07864 4.85269,7.97177 c 2.66898,4.38448 5.21076,8.38797 5.64841,8.89663 0.43764,0.50867 0.79571,1.13574 0.79571,1.39351 0,0.25776 1.03374,1.97114 2.2972,3.80752 1.26347,1.83638 2.29721,3.6788 2.29721,4.09426 0,0.41547 0.25844,0.87025 0.5743,1.01064 0.57328,0.2548 12.4432,19.51538 12.4432,20.19082 0,0.19602 -9.43417,0.35641 -20.96482,0.35641 l -20.96482,0 -0.8341,-2.10577 c -0.45876,-1.15818 -2.28014,-6.58533 -4.0475,-12.06033 -4.78145,-14.81212 -5.25875,-14.76495 -5.25875,0.51973 0,10.88966 -0.17403,12.78356 -1.21123,13.18157 -1.44377,0.55403 -37.80072,0.51474 -39.1813,-0.0423 z m 98.33997,0.004 c -0.28452,-0.28489 -0.51731,-20.6061 -0.51731,-45.15861 0,-43.351499 0.0428,-44.663839 1.48113,-45.433619 1.58623,-0.84892 35.76311,-1.14466 37.8916,-0.32788 1.07842,0.41383 1.21123,4.06466 1.21123,33.296549 l 0,32.83176 19.71768,0.20436 19.71768,0.20436 0,12.25176 0,12.25176 -39.49235,0.19826 c -21.72079,0.10904 -39.72514,-0.0345 -40.00966,-0.31906 z m 88.30797,-37.40538 0,-37.90869 3.12956,2.26703 c 4.31662,3.12695 10.75808,4.89394 16.10066,4.41665 4.76578,-0.42576 10.83721,-2.81624 13.49541,-5.31349 l 1.73245,-1.62755 0,38.03737 0,38.03737 -17.22904,0 -17.22904,0 0,-37.90869 z m 43.83833,37.40156 c -0.75001,-0.30264 -0.95717,-9.82664 -0.95717,-44.00588 l 0,-43.619659 2.02615,-1.87777 c 2.02546,-1.87712 2.03211,-1.87778 19.19372,-1.87778 10.36969,0 17.75406,0.31388 18.6487,0.79268 1.36108,0.72843 1.48113,1.70372 1.48113,12.032979 0,13.60829 0.29638,13.54331 6.1099,-1.33963 2.22088,-5.68558 4.4252,-10.590579 4.89848,-10.899999 1.39892,-0.91457 39.36388,-0.7088 39.93571,0.21646 0.27278,0.44136 -5.78834,10.175769 -13.46915,21.632009 -7.68082,11.45625 -13.97126,21.20662 -13.97876,21.66751 -0.008,0.46089 3.74804,6.93265 8.34563,14.38171 4.59761,7.44905 9.88158,16.03106 11.74217,19.07114 1.86059,3.04007 3.75578,5.78523 4.21154,6.10035 1.17612,0.81317 4.57258,-0.003 10.95172,-2.63068 17.46135,-7.19353 30.78913,-21.99797 36.06216,-40.0577 3.4436,-11.79406 4.18208,-29.71087 1.64119,-39.818219 -2.2403,-8.9117 -8.1108,-23.43438 -11.77482,-29.12907 -3.97693,-6.18101 -11.69582,-14.15337 -17.57428,-18.15136 -5.89649,-4.01026 -18.72539,-10.07156 -24.98606,-11.80522 -7.0712,-1.9581 -30.38524,-2.00433 -37.36526,-0.0741 -20.8785,5.77368 -37.01325,21.36451 -43.78978,42.31356 -0.95364,2.94809 -2.00351,5.65519 -2.33304,6.01579 -0.32954,0.3606 -1.29309,-0.91309 -2.14121,-2.83043 -1.96869,-4.45056 -7.14619,-9.63215 -12.02191,-12.03143 -5.33943,-2.62747 -15.89168,-2.68286 -21.10363,-0.11079 -6.60473,3.25941 -11.70854,9.53695 -13.66696,16.80996 -1.43555,5.33123 -2.25202,3.68223 -1.11956,-2.26114 1.45517,-7.637 2.18081,-9.55707 5.4726,-14.48072 12.48781,-18.67847 44.38608,-32.91111 86.71905,-38.69302 6.57356,-0.89783 14.96833,-1.31734 26.80073,-1.3393 14.65969,-0.0272 18.56283,0.22047 26.17293,1.66079 38.13727,7.21806 66.0593,29.09869 75.94376,59.51206 7.43794,22.885689 1.4686,45.021899 -17.03553,63.173139 -13.22686,12.97461 -29.81875,22.36284 -52.25882,29.56971 l -8.14449,2.6157 -21.28483,-0.2037 -21.28483,-0.2037 -4.12564,-12.25176 c -2.26909,-6.73847 -4.44589,-12.57912 -4.83732,-12.97921 -0.43909,-0.44881 -0.71169,3.96543 -0.71169,11.52431 0,8.50817 -0.28077,12.53254 -0.91888,13.17065 -0.66822,0.66821 -6.04715,0.90238 -19.71768,0.85842 -10.33934,-0.0332 -19.22953,-0.23425 -19.75597,-0.44667 z m -34.37154,-81.61796 c -6.93567,-4.63518 -9.30659,-13.288219 -5.6887,-20.761789 4.9441,-10.21314 19.02594,-11.96305 26.62468,-3.30857 5.4646,6.22384 5.29987,15.05489 -0.39863,21.370109 -3.54212,3.92545 -6.53242,5.18889 -12.28111,5.18889 -3.8392,0 -5.10203,-0.38065 -8.25624,-2.48864 z"
       id="path4165"
       inkscape:connector-curvature="0"
       clip-path="url(#clipPath4181)"
       transform="matrix(0.64103379,0,0,0.64103379,-31.94701,850.47554)" />
    <rect
       style="opacity:1;fill:none;fill-opacity:1;stroke:none;stroke-linejoin:round"
       id="rect4173"
       width="301.42856"
       height="152.85715"
       x="-278.57144"
       y="10.933633"
       clip-path="url(#clipPath4177)" />
  </g>
</svg>
